<svg t="1783303859437" class="icon" viewBox="0 0 1024 1024" version="1.1" xmlns="http://www.w3.org/2000/svg" p-id="27897" data-spm-anchor-id="a313x.search_index.0.i23.1fef3a81MUaXzq" width="200" height="200"><path d="M507.52 35.2c-14.72-42.368-38.208-42.368-52.928 0L373.376 273.6c-14.144 42.432-61.12 88.576-103.168 103.168L31.872 457.6c-42.496 14.592-42.496 38.016 0 52.608L268.8 592c42.56 14.656 88.96 61.312 103.68 103.168l82.688 238.912c14.656 42.368 38.208 42.368 52.8 0l80.768-237.44c14.208-42.368 60.672-88.512 103.168-103.168l241.792-82.304c42.496-14.592 42.496-37.952 0-52.032l-237.824-79.872c-42.56-14.08-88.96-60.352-103.68-102.72C590.656 276.032 507.456 35.2 507.456 35.2z m335.232-26.432c-4.096-11.712-10.56-11.712-14.592 0l-22.656 66.304a52.16 52.16 0 0 1-28.608 28.672l-66.24 22.4c-11.84 4.032-11.84 10.56 0 14.656l65.856 22.656a52.864 52.864 0 0 1 28.736 28.672l22.976 66.368c4.096 11.776 10.56 11.776 14.592 0l22.464-65.984a51.84 51.84 0 0 1 28.8-28.672l67.008-22.848c11.904-3.968 11.904-10.496 0-14.464l-66.048-22.144a51.776 51.776 0 0 1-28.8-28.544A4952 4952 0 0 1 842.88 8.832z m28.608 705.024c-4.864-14.08-12.736-14.08-17.6 0l-27.072 79.488a62.72 62.72 0 0 1-34.368 34.432l-79.552 26.88c-14.08 4.928-14.08 12.672 0 17.536l79.04 27.264c14.144 4.864 29.632 20.48 34.56 34.368l27.52 79.68c4.864 14.08 12.736 14.08 17.536 0l27.008-79.168a62.208 62.208 0 0 1 34.368-34.368l80.64-27.456c14.08-4.928 14.08-12.672 0-17.28l-79.36-26.688a62.208 62.208 0 0 1-34.56-34.24c-0.448-0.128-28.16-80.448-28.16-80.448z" p-id="27898" fill="#5f6eb8" data-spm-anchor-id="a313x.search_index.0.i24.1fef3a81MUaXzq" class=""></path></svg>
